<svg id="Capa_2" data-name="Capa 2" xmlns="http://www.w3.org/2000/svg" viewBox="0 0 775.43 347.76"><defs><style>.cls-1{fill:#1d1d1b}.cls-2{fill:#fff}</style></defs><path class="cls-1" d="M.11 0h775.32v347.76H.11z"/><ellipse class="cls-2" cx="158.79" cy="182.1" rx="158.68" ry="159.14"/><path class="cls-1" d="M26.3 223s-17 45.82 28.77 48.21l85.43 1.19s16.49 1.87 27.76-17.54c0 0 7.3-21.09 29.55-20.59s29.55 22.43 29.55 22.43 9.62 32.9 46.81 32.73c0 0 23.28.51 41.2-21.46 0 0 5.11-8.56-7.33-34.25 0 0 17.17 30.41 15 70.38L5.72 301.38S2.92 262.37 26.3 223Z" transform="translate(-5.61 -119.28)"/><path class="cls-1" d="M24.81 377.1S8.72 331 54.49 329.46l85.43.47s16.53-1.55 27.43 18.08c0 0 6.9 21.22 29.16 21.16s30-21.84 30-21.84 10.23-32.71 47.41-31.81c0 0 23.29-.06 40.79 22.25 0 0 4.94 8.67-8 34.1 0 0 17.73-30.07 16.33-70.08L5.72 298.28S3 339.44 24.81 377.1Z" transform="translate(-5.61 -119.28)"/><ellipse class="cls-2" cx="80.95" cy="179.41" rx="14.57" ry="14.81"/><path class="cls-2" d="M337.82 256h71s16.92-1.87 16.92 17.77c0 0 .34 17.6-17.09 17.43s-29 0-29 0-11.56 1.54-12.9-9.74-10.5-13.46-10.5-13.46l-18.43-.35s-13.57-.51-13.74 13.84 0 77.92 0 77.92-.67 13.67 13.07 13.84 15.58 0 15.58 0 11.56-.17 13.06-13.84l.21-34.21s1-3.93 4 0 57.29 85.94 57.29 85.94a8.72 8.72 0 0 0 8.37 5h30.49s10.64-.67 6.2-10.75l-54.44-84s-1.85-2.4 2-3.25 40-9.06 40-51.43-39.53-54.34-51.09-53.48h-71.19S324.44 212.77 324 227s0 15.38 0 15.38-.92 13.62 13.82 13.62ZM481.37 213.23h129s7.37.9 7.2 7.54c0 0-1.17 5.28-2.68 6.81s-15.91 24-15.91 24-4.35 6.81-9 5.1l-108.55-.34s-14.57.69-14.57-14v-15s-.4-14.11 14.51-14.11Z" transform="translate(-5.61 -119.28)"/><path class="cls-2" d="M480.87 267.25h99.66s12.9-.17 12.9 13.62v16.27s.51 14.89-13.57 14.55H512s-2.18-.49-2.35 2.64-.17 13-.17 13a2.11 2.11 0 0 0 2.52 2.39h78.22s5.19-1.37 9 6.8l15.57 23.83s3.35 5.28 1.68 8.35a7.24 7.24 0 0 1-7 4.59h-128.6s-13.74.86-13.9-14v-77.3s-1.68-14.74 13.9-14.74Z" transform="translate(-5.61 -119.28)"/><path class="cls-2" d="m639.33 213 28.06-.3s4.79-.11 9.33 6.08l13.89 22.07a2.22 2.22 0 0 0 3.76.05l32-65.52a8.78 8.78 0 0 1 8.3-5.83l30.11-.45s10.26.5 8.76 9.75L722 284a4.2 4.2 0 0 0 0 3.32l47.58 73.3s4.82 10.57-6.14 11.64l-30.1-.43s-4.29.82-8.66-5l-22.95-35.33s-1.4-2.17-2.91 0l-38.75 78.7s-1.6 4.35-8.63 5.48l-29.76-.42s-10.93-1.56-7.37-11.66l56.84-115.44s1-1.92-.13-3.28l-39.21-59.71s-3.18-5.12 0-9.27c-.04 0 2.05-2.81 7.52-2.9Z" transform="translate(-5.61 -119.28)"/><circle class="cls-1" cx="122.75" cy="93.95" r="30.6"/><circle class="cls-1" cx="122.75" cy="270.72" r="30.6"/></svg>